:SAMPLES-PER-SECOND 30
:FULLY-SPECIFIED
:DEGREES
216
root  14.2155 37.8979 -2.11245 -163.906 -43.6623 167.687
RightUpLeg  -36.0319 -5.33415 -17.2309
RightLeg  15.4034 15.5805 4.19409
RightFoot  1.78159 -2.38213 20.6566
RightToes  0.00048216 0.542163 -0.142577
Spine  48.4969 -8.05228 8.82953
Spine1  7.50487 -8.83724 18.7187
HEad  -28.7997 6.37353 12.1869
LeftShoulder1  10.1758 -18.1101 -40.7597
LeftArm  -17.1413 -32.8569 -47.0308
LeftForeArm  23.1135 -8.58425 -3.30211
LeftHand  -0.25398 0.0180481 5.50724
RightShoulder  6.19598 10.7558 37.4273
RightArm  -6.35497 15.2534 18.0791
RightForeArm  -0.997669 40.3846 9.59466
RightHand  -3.78025 12.2543 -24.958
LeftUpLeg  -29.2247 31.4049 -14.2034
LeftLeg  35.6323 11.733 9.27136
LeftFoot  -14.2596 0.132346 1.83198
LeftToes  1.06241e-005 4.65855e-005 -8.18508e-006
217
root  14.7479 37.8197 -2.3447 -162.254 -47.4158 167.494
RightUpLeg  -37.0756 -5.6588 -16.7871
RightLeg  15.499 13.673 3.69204
RightFoot  6.40882 -2.85442 18.407
RightToes  0.00048216 0.542163 -0.142577
Spine  49.2294 -8.33643 8.37474
Spine1  7.59127 -9.2499 18.4182
HEad  -27.697 4.16596 14.0604
LeftShoulder1  10.04 -18.1663 -40.0498
LeftArm  -16.5411 -35.9307 -44.9685
LeftForeArm  13.85 0.0800584 -3.05315
LeftHand  -0.25398 0.0180481 5.50724
RightShoulder  6.21987 10.7515 37.6008
RightArm  -3.3851 13.3667 20.8165
RightForeArm  2.43618 37.1453 8.35524
RightHand  -3.52455 12.2129 -23.3945
LeftUpLeg  -31.464 28.6895 -13.5679
LeftLeg  36.0161 10.5443 8.5075
LeftFoot  -13.1773 0.111794 2.03315
LeftToes  1.06241e-005 4.65855e-005 -8.18508e-006
218
root  15.264 37.8106 -2.55491 -160.511 -50.9314 166.976
RightUpLeg  -38.0681 -7.41261 -16.015
RightLeg  16.1361 11.6862 3.39401
RightFoot  8.17589 -2.66678 15.7277
RightToes  0.00048216 0.542163 -0.142577
Spine  49.6439 -8.81003 8.24701
Spine1  8.35884 -9.66293 17.1408
HEad  -26.9111 1.9405 16.0005
LeftShoulder1  9.57318 -18.0572 -38.2091
LeftArm  -15.5163 -37.3831 -43.5308
LeftForeArm  15.5893 1.97966 -3.36633
LeftHand  -0.25398 0.0180481 5.50724
RightShoulder  6.36236 10.9742 37.9037
RightArm  -0.0240869 12.4221 23.2029
RightForeArm  6.44223 34.0811 7.23913
RightHand  -2.89394 11.0653 -20.6319
LeftUpLeg  -33.1949 26.9116 -13.2289
LeftLeg  35.4323 9.01092 7.20423
LeftFoot  -11.9344 0.0830845 2.23873
LeftToes  1.06241e-005 4.65855e-005 -8.18508e-006
219
root  15.7596 37.8585 -2.77228 -158.747 -53.9768 166.178
RightUpLeg  -38.7634 -9.17659 -15.1981
RightLeg  16.4729 10.3703 3.11607
RightFoot  8.69965 -2.3315 13.4782
RightToes  0.00048216 0.542163 -0.142577
Spine  50.0401 -8.83411 8.07566
Spine1  9.20006 -9.64872 16.0389
HEad  -26.4932 -0.552151 17.1878
LeftShoulder1  9.34105 -17.8913 -37.5008
LeftArm  -14.7758 -37.6864 -41.8135
LeftForeArm  26.9797 -1.94125 -3.95488
LeftHand  -0.25398 0.0180481 5.50724
RightShoulder  6.42275 11.1921 37.6706
RightArm  2.04183 11.5036 25.124
RightForeArm  10.7146 32.0796 6.4645
RightHand  -2.1015 9.14851 -17.1186
LeftUpLeg  -34.4515 26.2061 -13.2002
LeftLeg  34.2218 7.2244 5.62876
LeftFoot  -10.6126 0.0474835 2.53154
LeftToes  1.06241e-005 4.65855e-005 -8.18508e-006
220
root  16.2302 37.9083 -3.01634 -156.724 -56.8776 164.916
RightUpLeg  -39.024 -10.064 -15.0265
RightLeg  16.301 8.48205 2.47768
RightFoot  9.12602 -2.2516 12.768
RightToes  0.00048216 0.542163 -0.142577
Spine  50.5779 -8.22197 7.68778
Spine1  9.14992 -9.17113 16.1805
HEad  -26.2792 -3.27015 16.9541
LeftShoulder1  9.89953 -18.0315 -39.6991
LeftArm  -12.4046 -36.9502 -38.8851
LeftForeArm  38.8889 -9.95011 -4.61157
LeftHand  -0.25398 0.0180481 5.50724
RightShoulder  6.28642 11.1305 36.946
RightArm  2.02586 10.1791 26.1503
RightForeArm  13.072 30.9614 6.04982
RightHand  -1.67053 7.99309 -14.8829
LeftUpLeg  -35.4006 25.5798 -13.2995
LeftLeg  32.8632 5.28007 4.03166
LeftFoot  -9.22183 0.0105548 2.48227
LeftToes  1.06241e-005 4.65855e-005 -8.18508e-006
221
root  16.6676 37.9228 -3.26745 -154.504 -59.9643 163.288
RightUpLeg  -39.0066 -10.3231 -15.4838
RightLeg  16.4345 5.26983 1.45744
RightFoot  8.49817 -2.353 13.7495
RightToes  0.00048216 0.542163 -0.142577
Spine  51.0336 -7.59612 7.35446
Spine1  8.50176 -8.64532 16.7185
HEad  -26.3949 -5.49456 15.9697
LeftShoulder1  10.6737 -18.3217 -42.471
LeftArm  -6.51469 -35.2174 -36.4025
LeftForeArm  42.112 -19.9249 -3.83285
LeftHand  -0.25398 0.0180481 5.50724
RightShoulder  6.12884 10.9022 36.5471
RightArm  0.847582 9.09945 26.2159
RightForeArm  11.4852 30.066 5.92045
RightHand  -1.69865 8.05412 -15.023
LeftUpLeg  -36.0957 24.1126 -13.0793
LeftLeg  31.7748 3.68963 2.82337
LeftFoot  -8.31341 0.00976346 1.52285
LeftToes  1.06241e-005 4.65855e-005 -8.18508e-006
222
root  17.0641 37.9185 -3.49084 -152.506 -63.1165 161.705
RightUpLeg  -39.0626 -10.4803 -15.8956
RightLeg  17.6893 1.90056 0.449953
RightFoot  5.61976 -2.19491 14.9052
RightToes  0.00048216 0.542163 -0.142577
Spine  51.0569 -7.44627 7.19758
Spine1  8.53478 -8.50002 16.4029
HEad  -27.2617 -6.61051 15.3273
LeftShoulder1  10.6884 -18.3826 -42.3969
LeftArm  -7.10423 -32.9337 -36.0074
LeftForeArm  44.08 -29.1627 -3.79154
LeftHand  -0.25398 0.0180481 5.50724
RightShoulder  6.09929 10.7995 36.6429
RightArm  -0.763741 9.2346 26.065
RightForeArm  8.04395 29.0906 5.87691
RightHand  -1.90314 8.45294 -16.3039
LeftUpLeg  -36.5448 22.0122 -12.352
LeftLeg  31.2899 3.61476 2.7288
LeftFoot  -8.96131 0.0529632 -0.0673758
LeftToes  1.06241e-005 4.65855e-005 -8.18508e-006
223
root  17.4139 37.9321 -3.67211 -151.331 -66.0558 160.556
RightUpLeg  -39.1126 -10.8159 -15.7044
RightLeg  19.8632 -0.0933573 -0.244398
RightFoot  0.985633 -1.5816 14.5749
RightToes  0.00048216 0.542163 -0.142577
Spine  50.7918 -7.49947 7.02865
Spine1  9.62037 -8.69053 15.567
HEad  -28.9022 -6.91046 15.0781
LeftShoulder1  10.099 -18.2534 -40.1315
LeftArm  -11.4852 -30.7104 -37.2798
LeftForeArm  45.8141 -37.2122 -5.78029
LeftHand  -0.25398 0.0180481 5.50724
RightShoulder  6.10522 10.8202 36.623
RightArm  -3.0425 10.5947 26.1058
RightForeArm  6.5386 28.1214 5.72879
RightHand  -2.03741 8.56043 -17.2787
LeftUpLeg  -36.6233 20.3021 -11.2931
LeftLeg  31.5606 5.62723 4.08274
LeftFoot  -11.3517 0.068441 -1.29907
LeftToes  1.06241e-005 4.65855e-005 -8.18508e-006
